<svg width="229" height="179" viewBox="0 0 229 179" fill="none" xmlns="http://www.w3.org/2000/svg">
<g clip-path="url(#clip0_4763_51269)">
<path opacity="0.15" d="M211.479 171.243C218.371 171.243 223.958 170.18 223.958 168.868C223.958 167.556 218.371 166.492 211.479 166.492C204.587 166.492 199 167.556 199 168.868C199 170.18 204.587 171.243 211.479 171.243Z" fill="#263238"/>
<path d="M205.754 164.244C203.053 164.244 200.048 160.293 200.048 157.615C200.048 154.938 202.219 152.679 204.887 152.679C207.555 152.679 209.726 154.893 209.726 157.615C209.726 160.179 208.648 164.244 205.754 164.244V164.244ZM204.887 154.321C203.124 154.321 201.69 155.798 201.69 157.615C201.69 159.619 204.12 162.603 205.754 162.603C207.254 162.603 208.084 159.653 208.084 157.615C208.084 155.798 206.65 154.321 204.887 154.321V154.321Z" fill="#263238"/>
<path d="M215.09 168.514H207.985C206.804 168.514 205.821 167.61 205.723 166.433L204.253 148.735H219.112L217.345 166.47C217.23 167.629 216.254 168.513 215.087 168.513L215.09 168.514Z" fill="#263238"/>
<path d="M205.977 127.508C205.479 129.175 205.257 130.889 205.54 132.539C205.68 133.361 205.914 134.163 206.238 134.931C206.573 135.697 206.987 136.431 207.46 137.132C207.949 137.823 208.468 138.5 209.055 139.127C209.194 139.278 209.345 139.464 209.497 139.647C209.646 139.832 209.805 140.005 209.944 140.198L210.338 140.804C210.475 141.001 210.556 141.243 210.664 141.461C210.778 141.677 210.833 141.929 210.904 142.168C210.987 142.403 211 142.664 211.03 142.915C211.05 143.04 211.046 143.169 211.034 143.297L211.008 143.679C210.99 143.805 210.955 143.929 210.928 144.054C210.9 144.178 210.873 144.302 210.82 144.417L210.677 144.765C210.618 144.876 210.555 144.982 210.493 145.088C210.435 145.199 210.36 145.294 210.287 145.393C210.213 145.49 210.145 145.591 210.058 145.675C209.734 146.039 209.374 146.332 208.943 146.575L208.67 146.14C209.278 145.604 209.776 144.885 209.945 144.144C209.978 144.054 209.986 143.959 209.997 143.864C210.006 143.77 210.024 143.678 210.028 143.585L210.015 143.304C210.015 143.211 210.01 143.117 209.982 143.025C209.939 142.84 209.927 142.654 209.843 142.475C209.772 142.295 209.726 142.111 209.614 141.942C209.512 141.771 209.44 141.593 209.317 141.43L208.965 140.938C208.839 140.777 208.69 140.63 208.554 140.475L208.118 140C207.807 139.665 207.496 139.33 207.209 138.969C206.908 138.622 206.644 138.242 206.379 137.865C205.877 137.089 205.408 136.28 205.076 135.404C204.746 134.528 204.511 133.612 204.427 132.677C204.235 130.803 204.681 128.921 205.503 127.312L205.978 127.507L205.977 127.508Z" fill="#D3DFFF"/>
<path d="M212.431 127.003C213.351 127.755 214.102 128.804 214.449 130.014C214.63 130.614 214.707 131.241 214.717 131.865C214.726 132.49 214.625 133.103 214.501 133.704C214.361 134.3 214.161 134.875 213.928 135.429L213.773 135.81C213.727 135.929 213.671 136.047 213.632 136.167L213.532 136.525C213.495 136.646 213.491 136.76 213.466 136.879C213.436 136.999 213.448 137.11 213.442 137.224C213.429 137.342 213.461 137.446 213.471 137.558C213.475 137.672 213.528 137.766 213.55 137.878C213.599 137.975 213.634 138.083 213.701 138.175C213.93 138.562 214.367 138.89 214.824 139.098L214.723 139.601C214.072 139.533 213.463 139.255 212.977 138.741C212.855 138.616 212.763 138.462 212.665 138.315C212.593 138.156 212.493 137.999 212.451 137.828C212.405 137.659 212.348 137.485 212.34 137.315C212.325 137.144 212.297 136.967 212.314 136.803C212.327 136.637 212.318 136.461 212.355 136.304L212.453 135.824C212.493 135.668 212.548 135.522 212.595 135.37C212.646 135.219 212.694 135.063 212.741 134.944C212.946 134.439 213.094 133.919 213.228 133.402C213.352 132.883 213.429 132.359 213.461 131.836C213.486 131.314 213.449 130.794 213.36 130.279C213.178 129.247 212.694 128.274 212.057 127.352L212.431 127V127.003Z" fill="#D3DFFF"/>
<path opacity="0.15" d="M37.9578 160.044C51.7416 160.044 62.9155 158.39 62.9155 156.35C62.9155 154.31 51.7416 152.656 37.9578 152.656C24.174 152.656 13 154.31 13 156.35C13 158.39 24.174 160.044 37.9578 160.044Z" fill="#263238"/>
<path d="M39.5472 96.1929H36.0439V130.443H39.5472V96.1929Z" fill="#27481F"/>
<path d="M38.6719 93.891C38.626 96.3688 38.3961 98.4567 38.203 99.8066C38.0546 100.844 37.9298 101.441 37.9298 101.441C28.367 98.3385 23.9797 92.4137 22.1538 86.4351C21.9831 85.8901 21.8386 85.3425 21.7138 84.7963C19.7828 76.4776 22.3706 68.5529 22.3706 68.5529C26.7539 69.4682 29.9958 71.3788 32.376 73.8382C32.7858 74.2584 33.1668 74.6918 33.5254 75.1422C37.9324 80.6639 38.777 88.2761 38.6706 93.8897L38.6719 93.891Z" fill="#49883A"/>
<path d="M51.0678 77.3325C50.8774 83.9835 48.2896 91.7309 40.2637 99.1698C39.6503 99.741 38.9988 100.312 38.317 100.879C38.2448 100.942 38.1725 101.002 38.1003 101.061C38.1003 101.061 36.771 99.1107 35.4009 95.9395C35.3812 95.8935 35.3615 95.8502 35.3444 95.8042C34.865 94.6841 34.3829 93.4143 33.956 92.0264C33.6039 90.8944 33.29 89.6864 33.0365 88.4126C32.071 83.5186 32.0671 77.7133 34.7375 71.9684C36.7407 67.6416 40.2611 63.3516 46.0211 59.5002C46.0211 59.5002 51.3647 67.1295 51.0678 77.3325V77.3325Z" fill="#49883A"/>
<path opacity="0.5" d="M40.2651 99.1698C39.6516 99.741 39.0001 100.312 38.3184 100.879C38.2461 100.942 38.1739 101.002 38.1016 101.061C38.1016 101.061 36.7723 99.1107 35.4022 95.9395C35.3839 95.8961 35.3655 95.8489 35.3458 95.8055C35.2302 95.535 35.1146 95.2553 34.999 94.9678C34.9556 94.8575 34.9123 94.7419 34.8676 94.6303C34.7927 94.4373 34.7166 94.2469 34.643 94.0473C34.5852 93.891 34.5287 93.7269 34.4709 93.5653C34.4105 93.3973 34.3501 93.2318 34.291 93.0585C34.1767 92.7223 34.065 92.3796 33.9573 92.0277C33.6053 90.8958 33.2913 89.6877 33.0378 88.414C32.2497 84.4221 32.1013 79.8235 33.5265 75.1448C33.1679 74.6944 32.7882 74.2611 32.3771 73.8409C31.4563 76.2689 29.9615 81.8365 29.7841 86.8566C27.5734 85.9899 24.9147 85.2808 21.7149 84.7989C21.8397 85.3439 21.9842 85.8928 22.1549 86.4377C20.7915 86.112 19.3176 85.8271 17.7256 85.5907C18.9827 89.8781 24.0268 103.535 37.19 103.738C37.525 103.745 37.8626 103.741 38.208 103.728C38.7505 103.711 39.3048 103.669 39.8762 103.603C39.8762 103.603 40.4673 101.741 40.2677 99.1711L40.2651 99.1698Z" fill="#27481F"/>
<path d="M38.2864 103.011C38.2864 103.021 38.2864 103.033 38.2838 103.043C38.2772 103.125 38.2707 103.205 38.2602 103.28C38.2536 103.317 38.2509 103.352 38.247 103.389C38.2404 103.452 38.2339 103.51 38.2247 103.569C38.201 103.75 38.1748 103.917 38.1485 104.078C38.1327 104.183 38.1117 104.286 38.092 104.384C37.9186 105.268 37.7216 105.793 37.7216 105.793C36.785 105.852 35.8918 105.848 35.0314 105.791C19.4485 104.747 16.25 85.3845 16.25 85.3845C16.7518 85.4476 17.2418 85.5158 17.7212 85.592C19.3133 85.8284 20.7884 86.1133 22.1506 86.439C27.7831 87.7784 31.5097 89.7979 33.953 92.0303C34.6886 92.7 35.3059 93.392 35.8209 94.0879C37.2658 96.0314 37.9383 98.0273 38.1984 99.8105C38.2536 100.178 38.2904 100.535 38.314 100.883C38.3626 101.658 38.3429 102.378 38.2838 103.015L38.2864 103.011Z" fill="#49883A"/>
<path opacity="0.38" d="M51.0675 77.3325C50.9729 80.6586 50.2767 84.2566 48.6019 87.9557C46.931 91.6561 44.2776 95.451 40.2647 99.1698C40.2476 99.1829 40.2319 99.1987 40.2148 99.2131C39.9783 99.4324 39.7353 99.653 39.4857 99.8723C39.4135 99.9379 39.3412 100.004 39.2651 100.069C38.9564 100.338 38.6411 100.61 38.3167 100.879C38.293 100.531 38.2576 100.174 38.2011 99.8066C37.941 98.0234 37.2684 96.0288 35.8235 94.084C35.3086 93.3881 34.6912 92.696 33.9556 92.0264C33.6036 90.8944 33.2897 89.6864 33.0361 88.4126C33.9254 88.9313 34.7136 89.4789 35.4032 90.0501C35.8931 90.4506 36.3266 90.8616 36.7233 91.2779C38.7751 85.9111 42.9102 80.4157 51.0675 77.3325V77.3325Z" fill="#27481F"/>
<path opacity="0.2" d="M38.2868 103.011C38.2868 103.021 38.2868 103.033 38.2841 103.044C38.2776 103.125 38.271 103.205 38.2605 103.28C38.2539 103.317 38.2513 103.352 38.2473 103.389C38.2408 103.452 38.2342 103.51 38.225 103.569C38.2014 103.75 38.1751 103.917 38.1488 104.078C38.1291 104.183 38.1121 104.286 38.0924 104.384C37.919 105.268 37.7219 105.793 37.7219 105.793C36.7853 105.852 35.8921 105.848 35.0317 105.791C34.8873 104.716 34.4696 100.722 35.3996 95.9421C35.5178 95.3355 35.6583 94.7143 35.8225 94.0867C37.2674 96.0301 37.94 98.0261 38.2001 99.8093C38.2552 100.177 38.292 100.534 38.3157 100.882C38.3643 101.657 38.3446 102.376 38.2854 103.013L38.2868 103.011Z" fill="#27481F"/>
<path d="M53.2852 126.067L49.4338 151.272C49.0043 154.082 46.5873 156.157 43.7434 156.157H32.1775C29.6581 156.157 27.4723 154.529 26.7104 152.202C26.6119 151.904 26.5357 151.591 26.4871 151.272L22.6357 126.067H53.2878H53.2852Z" fill="#404040"/>
<path d="M37.3187 105.822C37.3187 105.822 33.0982 80.7992 59.9409 77.192C59.9409 77.192 61.6249 104.611 37.3187 105.822Z" fill="#49883A"/>
<path opacity="0.4" d="M53.2847 126.067L49.4334 151.272C49.0038 154.082 46.5869 156.157 43.743 156.157H32.177C29.6576 156.157 27.4718 154.529 26.71 152.202C41.7267 149.795 45.7527 134.341 46.5685 126.068H53.2874L53.2847 126.067Z" fill="black"/>
<path opacity="0.15" d="M202.56 156.655C202.56 153.575 175.124 151.08 141.279 151.08C107.435 151.08 79.999 153.577 79.999 156.655C79.999 159.152 98.05 161.265 122.929 161.975C125.639 166.419 121.116 171.733 117.65 173.65C111.563 173.954 107.195 174.631 107.883 176.076C111.136 182.904 138.78 175.638 138.78 175.638C138.78 175.638 149.589 176.311 149.589 175.283C149.589 174.81 147.686 174.378 144.554 174.049L144.785 174.036L133.116 162.181C135.787 162.214 138.512 162.231 141.281 162.231C175.125 162.231 202.561 159.735 202.561 156.657L202.56 156.655Z" fill="#263238"/>
<path d="M207.973 115.706C207.166 129.03 200.447 142.345 189.432 149.673C176.303 158.408 157.946 156.475 142.995 157.587C130.07 158.549 117.046 159.375 104.116 158C93.5224 156.871 82.8366 152.676 77.7754 142.394C72.7051 132.089 72.1573 118.397 77.2263 107.966C78.842 104.638 81.0068 101.679 83.5512 99.1002C83.9649 98.6761 84.3958 98.2624 84.8319 97.8593C85.1274 97.5875 85.4256 97.3183 85.7317 97.0557C86.198 96.6512 86.6775 96.2573 87.1635 95.8739C87.3237 95.7491 87.4853 95.6244 87.6495 95.4996C87.8111 95.3749 87.9753 95.2527 88.1395 95.1319C88.3036 95.0111 88.4678 94.889 88.6347 94.7708C88.7595 94.6815 88.8842 94.5936 89.009 94.5056C89.2153 94.3572 89.4254 94.2128 89.6395 94.0722C91.5285 92.7985 93.5185 91.6797 95.5703 90.7172C97.5669 89.7757 99.6226 88.9799 101.692 88.3378C108.493 86.2276 115.596 85.4791 122.614 84.556C137.506 82.6021 152.668 81.9363 167.679 81.9455C179.928 81.9495 193.72 83.7813 201.91 94.2915C206.534 100.227 208.435 108.116 207.972 115.706H207.973Z" fill="#EE6F57"/>
<path d="M182.757 93.2003C182.757 93.2003 185.916 90.2339 187.591 88.5164C189.265 86.7988 185.612 86.7437 183.811 88.884C182.011 91.0244 182.757 93.2016 182.757 93.2016V93.2003Z" fill="#FFC3BD"/>
<path d="M95.5719 90.7172C93.5201 91.6797 91.5287 92.7985 89.6411 94.0722C89.427 94.214 89.2181 94.3585 89.0106 94.5055C88.8858 94.5948 88.761 94.6828 88.6362 94.7708C88.4694 94.889 88.3052 95.0098 88.141 95.1319C87.9768 95.254 87.8126 95.3748 87.6511 95.4996C87.4869 95.6243 87.3253 95.7491 87.165 95.8738C86.6856 96.2546 86.2153 96.6459 85.753 97.0464L85.7333 97.0569C85.4272 97.3196 85.129 97.5888 84.8335 97.8606C84.3974 98.265 83.9665 98.6786 83.5527 99.1015C83.5882 99.4495 83.8154 99.7843 84.1872 99.8605C86.6514 100.359 87.8862 102.71 89.8723 104.047C91.3461 105.038 93.0892 105.311 94.7575 104.743C92.9618 108.545 91.9701 112.317 92.7464 116.574C92.9828 117.861 93.3914 119.113 93.9496 120.297C91.6417 118.583 89.4178 114.912 88.5036 111.189C88.3735 110.661 87.8402 110.329 87.3122 110.468C86.7841 110.598 86.461 111.131 86.5897 111.659C87.722 116.268 90.604 120.697 93.5976 122.429C94.3108 122.841 95.0346 123.104 95.7518 123.225C96.3456 123.985 97.0076 124.69 97.734 125.323L102.161 126.56L105.773 103.252L95.5692 90.7185L95.5719 90.7172Z" fill="#B35341"/>
<path d="M108.402 106.37C99.2495 102.806 92.8958 99.0162 89.2073 96.4937C86.8166 94.8575 85.6068 91.9739 86.0968 89.1192L90.8164 61.6171C91.3025 58.786 93.1795 56.3803 95.8198 55.2484C103.391 52.0024 110.764 50.1483 117.269 49.2488C117.269 49.2488 120.913 48.9546 125.56 49.4129C128.618 49.7149 135.621 51.7765 140.071 53.1592C142.585 53.9406 144.604 55.8223 145.557 58.2765C147.423 63.0852 150.455 71.2055 151.422 75.594C154.761 90.7501 154.213 89.6287 154.213 89.6287L157.661 112.937L121.046 114.988L111.686 110.72L108.402 106.371V106.37Z" fill="#DEA94E"/>
<path d="M131.06 23.0677C131.06 23.0677 127.817 16.4206 119.197 19.4566C112.958 18.1027 108.196 25.4891 112.794 35.5424L121.455 37.5528L131.06 23.0677V23.0677Z" fill="#263238"/>
<path d="M126.463 41.8624V53.6215C126.463 56.3725 124.23 58.6048 121.478 58.6048C117.747 58.6048 114.724 55.5806 114.724 51.8514V41.8624H126.463Z" fill="#FFC3BD"/>
<path d="M126.463 46.7407V53.1553C121.232 53.1816 117.761 46.419 117.761 46.419L126.463 46.7407Z" fill="#CC9C97"/>
<path d="M131.638 40.3812C131.323 42.0095 130.874 43.6771 130.226 45.1439C129.097 47.7203 127.373 49.6834 124.74 49.7398C118.575 49.8712 113.821 41.4514 113.821 41.4514L114.806 29.9615L119.485 24.709L132.374 32.6692C132.374 32.6692 132.41 36.4051 131.638 40.3812Z" fill="#FFC3BD"/>
<path d="M114.6 38.0872C114.6 38.0872 115.873 32.9161 120.306 29.5519C120.306 29.5519 126.75 37.9638 133.565 33.9009C140.38 29.8381 137.423 21.8359 131.061 23.0677L123.755 22.2469L114.601 25.1608L113.042 32.3423L114.601 38.0872H114.6Z" fill="#263238"/>
<path opacity="0.4" d="M121.07 97.6767C114.861 84.2645 107.034 90.666 105.118 85.7417C102.434 78.8426 102.943 71.0361 102.928 68.6711L99.1885 89.7218C99.1885 89.7218 107.537 90.515 110.626 95.5416L121.07 97.6767Z" fill="#955E1E"/>
<path d="M103.119 68.3126C102.887 70.1129 102.612 71.9066 102.328 73.699C102.053 75.4928 101.728 77.2773 101.431 79.0671C101.12 80.8543 100.792 82.6388 100.442 84.4181L99.9075 87.0863C99.7144 87.9727 99.5345 88.863 99.3256 89.7467L99.0537 89.6982C99.1627 88.796 99.298 87.8992 99.4215 86.9997L99.8353 84.3091C100.118 82.5167 100.422 80.7282 100.743 78.9437C101.078 77.1604 101.385 75.3733 101.743 73.594C102.091 71.8134 102.449 70.0354 102.849 68.2627L103.121 68.3113L103.119 68.3126Z" fill="#975C10"/>
<path d="M139.398 64.9839C139.895 67.3226 140.354 69.6691 140.804 72.0157C141.261 74.3622 141.673 76.7153 142.109 79.0658C142.526 81.419 142.934 83.7734 143.33 86.1304L143.902 89.6693C144.08 90.8511 144.269 92.0316 144.432 93.2161L144.179 93.2607C143.923 92.092 143.693 90.9194 143.45 89.7494L142.765 86.2302C142.322 83.8811 141.891 81.5306 141.468 79.1788C141.066 76.823 140.639 74.4712 140.257 72.1128C139.867 69.7545 139.487 67.3948 139.145 65.0285L139.397 64.9839H139.398Z" fill="#975C10"/>
<path opacity="0.4" d="M141.132 75.8395C141.569 80.1071 140.912 102.211 130.623 102.539L130.732 107.354L146.932 106.37L141.13 75.8395H141.132Z" fill="#955E1E"/>
<path d="M119.978 101.938C127.284 98.8192 128.681 98.9347 129.665 98.9833C133.031 99.1475 137.875 105.877 137.875 105.877L137.794 107.109H119.322L119.979 101.938H119.978Z" fill="#FFC3BD"/>
<path d="M148.081 105.905H125.341V109.352H148.081V105.905Z" fill="white"/>
<path d="M179.005 109.354H139.489L148.356 74.0523H187.872L179.005 109.354Z" fill="#E0E0E0"/>
<path d="M182.588 94.9165C178.679 94.3322 166.036 91.7059 139.982 107.574L139.381 109.763L179.007 109.356L182.588 94.9178V94.9165Z" fill="#B7B7B7"/>
<path d="M183.337 102.759C183.091 104.421 183.008 106.862 177.856 106.555L176.338 105.775L177.775 104.195L180.874 102.615L183.337 102.759Z" fill="#FFC3BD"/>
<path d="M183.823 98.2717C183.823 98.2717 186.642 101.954 183.81 103.087C180.731 104.319 177.775 104.195 177.775 104.195C179.089 100.503 183.358 100.748 183.358 100.748L183.823 98.273V98.2717Z" fill="#FFC3BD"/>
<path d="M183.906 95.8923C183.906 95.8923 187.791 99.5033 184.179 100.516C179.077 101.946 177.502 102.048 177.502 102.048C177.229 99.3405 182.291 97.5888 182.291 97.5888L183.906 95.8923Z" fill="#FFC3BD"/>
<path d="M183.111 92.746C183.111 92.746 188.42 95.9737 183.439 97.7792C178.458 99.5848 177.283 99.5572 177.283 99.5572C177.009 96.8495 182.345 95.9185 182.345 95.9185L183.111 92.7447V92.746Z" fill="#FFC3BD"/>
<path d="M177.282 99.5572C177.282 99.5572 183.07 98.7365 184.795 97.3407" stroke="#CC9C97" stroke-width="0.25" stroke-miterlimit="10"/>
<path d="M177.502 102.047C177.502 102.047 183.522 101.199 185.411 99.8855" stroke="#CC9C97" stroke-width="0.25" stroke-miterlimit="10"/>
<path d="M177.775 104.195C177.775 104.195 181.347 104.319 183.358 103.334" stroke="#CC9C97" stroke-width="0.25" stroke-miterlimit="10"/>
<path d="M121.701 155.94C122.303 155.612 131.826 157.691 142.39 149.867L128.762 145.983L121.701 155.94Z" fill="#263238"/>
<path d="M182.215 110.752C182.668 110.106 183.06 109.154 182.487 108.609C181.893 108.037 180.921 108.54 180.297 109.079C179.198 110.024 178.198 111.062 177.276 112.165L154.269 116.439L122.743 124.098L128.163 131.014C143.926 132.163 152.904 132.459 162.768 130.719C167.796 129.833 172.29 128.917 175.643 126.186C176.44 125.532 177.196 124.436 176.677 123.547C176.326 122.947 175.597 122.789 174.864 122.794C176.548 122.398 178.184 121.816 179.738 121.058C180.431 120.723 181.202 120.198 181.186 119.43C181.177 118.879 180.731 118.412 180.218 118.215C179.706 118.018 179.141 118.034 178.593 118.075C176.492 118.233 174.414 118.692 172.439 119.434C176.032 116.926 179.686 114.33 182.215 110.754V110.752ZM172.389 119.464C172.389 119.458 172.393 119.454 172.4 119.447C172.409 119.445 172.422 119.441 172.433 119.434C172.42 119.443 172.404 119.454 172.391 119.464H172.389Z" fill="#B35341"/>
<path d="M129.418 113.756C129.418 113.756 160.123 99.1475 170.139 99.804C180.155 100.461 179.826 112.935 176.05 118.352C172.273 123.769 163.407 130.991 130.732 128.857L129.418 113.756V113.756Z" fill="#1B2327"/>
<path d="M144.785 174.035C143.123 174.505 140.765 174.619 137.521 174.103C137.521 174.103 133.317 175.193 129.18 176.051C126.379 176.631 123.61 177.104 122.195 177.058C122.075 177.055 121.952 177.049 121.828 177.038C119.112 176.845 115.691 175.43 113.874 173.407C113.871 173.401 113.867 173.394 113.861 173.392C113.362 172.834 112.985 172.227 112.781 171.59C111.796 168.524 113.878 164.805 125.151 165.569C125.151 165.569 128.871 164.696 129.748 161.958C130.625 159.224 124.166 146.093 124.166 146.093L133.361 139.856L142.391 149.868C142.391 149.868 143.76 158.896 143.76 161.851C143.76 161.851 147.589 167.322 148.138 169.729C148.489 171.266 147.721 173.205 144.785 174.036V174.035Z" fill="#ECF1FF"/>
<path d="M93.085 90.8918C94.1384 90.486 95.2116 90.1591 96.2966 89.8584C96.8391 89.71 97.3869 89.5708 97.9425 89.4618C98.221 89.4053 98.5008 89.3581 98.7858 89.3187C98.929 89.299 99.0709 89.2845 99.2206 89.2727C99.3783 89.2648 99.5333 89.2662 99.6804 89.2819C100.86 89.4053 101.929 89.7756 102.992 90.1683C104.048 90.5714 105.083 91.0218 106.098 91.509C107.118 91.9909 108.108 92.5266 109.084 93.09C110.059 93.6533 111.018 94.2442 111.95 94.8771C113.803 96.1548 115.585 97.5585 117.119 99.2131L116.925 99.4087C116.1 98.6616 115.24 97.9564 114.346 97.2959C113.46 96.6262 112.541 95.9986 111.604 95.4024C109.742 94.1864 107.788 93.1176 105.798 92.1314C104.802 91.639 103.788 91.1833 102.759 90.7776C101.731 90.3928 100.677 89.9805 99.6291 89.8387C99.4978 89.8203 99.373 89.8164 99.2522 89.8164C99.1221 89.8229 98.9855 89.8334 98.8515 89.8479C98.5809 89.8781 98.309 89.9162 98.0371 89.9634C97.4933 90.058 96.9495 90.1683 96.407 90.2904C95.3233 90.5373 94.2422 90.8248 93.1809 91.1531L93.0876 90.8931L93.085 90.8918Z" fill="#975C10"/>
<path d="M98.551 133.863C102.245 133.616 105.875 133.881 108.512 132.959C111.331 131.974 118.692 132.631 118.692 132.631L114.642 126.803L98.2227 130.907L98.551 133.861V133.863Z" fill="#B35341"/>
<path d="M98.715 123.112C94.9385 117.039 94.9385 105.057 99.7002 99.6399C105.142 93.4498 116.777 91.1046 122.852 98.3268C128.927 105.549 140.092 131.976 142.391 149.867C142.391 149.867 130.076 145.763 121.702 155.94C121.702 155.94 110.701 130.827 108.403 121.635L102.163 126.559L98.715 123.112Z" fill="#263238"/>
<path d="M108.402 121.635C108.402 121.635 106.76 121.033 104.462 122.564C104.462 122.564 86.5092 122.181 82.5147 126.231C78.5188 130.279 81.5846 135.696 87.4405 136.299C92.3559 136.804 101.898 132.992 104.837 131.754C105.435 131.503 106.07 131.351 106.716 131.309L111.577 130.991L108.402 121.635V121.635Z" fill="#ECF1FF"/>
<path d="M115.571 38.4221C115.571 38.4221 114.366 34.4328 111.718 35.4308C109.069 36.4274 110.48 41.6208 115.709 43.0653L115.571 38.4234V38.4221Z" fill="#FFC3BD"/>
<path d="M112.751 60.4181C114.058 61.3399 115.451 62.1331 116.929 62.6951C118.406 63.2479 119.964 63.5985 121.527 63.5617C123.086 63.5434 124.629 63.1586 126.023 62.4456L126.547 62.179C126.719 62.0845 126.877 61.965 127.042 61.8599C127.369 61.642 127.708 61.4358 128 61.1679L128.461 60.7937L128.692 60.6059C128.767 60.5416 128.834 60.4667 128.905 60.3984C129.185 60.1174 129.47 59.8377 129.759 59.5607L129.955 59.7261C129.696 60.0386 129.433 60.3485 129.165 60.6571C129.098 60.7333 129.035 60.8147 128.963 60.8869L128.741 61.097L128.294 61.5185C128.004 61.81 127.664 62.0412 127.333 62.2854C127.164 62.4036 127.006 62.5362 126.83 62.6439L126.292 62.9511C124.853 63.7627 123.192 64.2012 121.533 64.2104C119.874 64.2144 118.228 63.8546 116.722 63.2072C115.211 62.5664 113.821 61.6774 112.592 60.619L112.749 60.4168L112.751 60.4181Z" fill="#975C10"/>
<path d="M105.681 111.155L107.103 116.131C107.587 117.787 108.04 119.451 108.545 121.099C109.041 122.75 109.533 124.4 110.053 126.043C110.314 126.864 110.57 127.687 110.855 128.498C110.994 128.906 111.119 129.319 111.266 129.722C111.413 130.127 111.556 130.533 111.695 130.941L111.459 131.039C111.092 130.254 110.748 129.458 110.424 128.655C110.101 127.851 109.808 127.036 109.51 126.223C108.926 124.592 108.41 122.94 107.922 121.28C107.447 119.616 106.98 117.953 106.567 116.273C106.151 114.595 105.758 112.912 105.43 111.212L105.679 111.153L105.681 111.155Z" fill="#263238"/>
<path opacity="0.1" d="M144.785 174.035C143.123 174.505 140.765 174.619 137.521 174.103C137.521 174.103 130.569 175.883 126.177 176.58C130.691 175.676 137.259 170.096 136.521 166.567C143.006 168.701 144.772 171.943 144.785 174.034V174.035Z" fill="#263238"/>
<path opacity="0.4" d="M127.323 174.652C126.486 175.683 125.239 176.382 123.928 176.734C123.241 176.917 122.535 177.016 121.826 177.039C119.111 176.846 115.689 175.431 113.872 173.409C113.87 173.402 113.866 173.396 113.859 173.393C113.666 173.13 113.485 172.857 113.327 172.576C114.293 173.476 115.343 174.211 116.477 174.773C117.045 175.042 117.62 175.301 118.22 175.482C118.512 175.594 118.818 175.659 119.12 175.745C119.418 175.837 119.731 175.872 120.039 175.929C122.492 176.342 125.097 176.086 127.323 174.655V174.652Z" fill="#263238"/>
<path d="M114.381 38.988C114.321 38.6295 114.151 38.2947 113.953 37.99C113.75 37.688 113.509 37.407 113.229 37.2087C112.949 37.013 112.646 36.9159 112.39 37.0538C112.12 37.1877 111.908 37.5133 111.722 37.8443L111.541 37.7812C111.62 37.3925 111.763 36.9631 112.172 36.6808C112.373 36.5403 112.648 36.4904 112.887 36.5338C113.128 36.5771 113.338 36.6808 113.515 36.8095C113.87 37.0708 114.13 37.4096 114.318 37.7799C114.5 38.1489 114.633 38.5652 114.574 38.9919L114.381 38.988Z" fill="#CC9C97"/>
<path d="M123.228 44.9325L127.583 45.2424C127.583 45.2424 125.153 48.4648 123.228 44.9325Z" fill="white"/>
</g>
<defs>
<clipPath id="clip0_4763_51269">
<rect width="229" height="179" fill="white"/>
</clipPath>
</defs>
</svg>
